<mxfile host="app.diagrams.net" modified="2023-09-11T06:27:07.474Z" agent="Mozilla/5.0 (Windows NT 10.0; Win64; x64) AppleWebKit/537.36 (KHTML, like Gecko) Chrome/116.0.0.0 Safari/537.36" etag="-iflqENP0Tjbdt0wdsWT" version="21.7.4" type="github">
  <diagram name="Halaman-1" id="vR_g2E2nVH_1-K1-rbvv">
    <mxGraphModel dx="880" dy="478" grid="1" gridSize="10" guides="1" tooltips="1" connect="1" arrows="1" fold="1" page="1" pageScale="1" pageWidth="827" pageHeight="1169" math="0" shadow="0">
      <root>
        <mxCell id="0" />
        <mxCell id="1" parent="0" />
        <mxCell id="Ume_qFMgXTS6-4JeX2_N-7" value="&lt;div style=&quot;&quot;&gt;&lt;span style=&quot;background-color: initial;&quot;&gt;geme tebak angka&amp;nbsp;&lt;/span&gt;&lt;/div&gt;" style="rounded=0;whiteSpace=wrap;html=1;direction=south;align=center;verticalAlign=top;" vertex="1" parent="1">
          <mxGeometry x="280" y="370" width="280" height="430" as="geometry" />
        </mxCell>
        <mxCell id="Ume_qFMgXTS6-4JeX2_N-8" value="random angka&amp;nbsp;" style="ellipse;whiteSpace=wrap;html=1;" vertex="1" parent="1">
          <mxGeometry x="324" y="420" width="180" height="90" as="geometry" />
        </mxCell>
        <mxCell id="Ume_qFMgXTS6-4JeX2_N-13" value="tebak angka&amp;nbsp;" style="ellipse;whiteSpace=wrap;html=1;" vertex="1" parent="1">
          <mxGeometry x="324" y="650" width="180" height="90" as="geometry" />
        </mxCell>
        <mxCell id="Ume_qFMgXTS6-4JeX2_N-14" value="" style="endArrow=none;html=1;rounded=0;exitX=1;exitY=0.5;exitDx=0;exitDy=0;" edge="1" parent="1" source="Ume_qFMgXTS6-4JeX2_N-13">
          <mxGeometry width="50" height="50" relative="1" as="geometry">
            <mxPoint x="510" y="690" as="sourcePoint" />
            <mxPoint x="690" y="610" as="targetPoint" />
          </mxGeometry>
        </mxCell>
        <mxCell id="Ume_qFMgXTS6-4JeX2_N-15" style="edgeStyle=orthogonalEdgeStyle;rounded=0;orthogonalLoop=1;jettySize=auto;html=1;exitX=1;exitY=0.5;exitDx=0;exitDy=0;" edge="1" parent="1" source="Ume_qFMgXTS6-4JeX2_N-7" target="Ume_qFMgXTS6-4JeX2_N-7">
          <mxGeometry relative="1" as="geometry" />
        </mxCell>
        <mxCell id="Ume_qFMgXTS6-4JeX2_N-18" value="asep" style="shape=umlActor;verticalLabelPosition=bottom;verticalAlign=top;html=1;outlineConnect=0;" vertex="1" parent="1">
          <mxGeometry x="690" y="580" width="105.89" height="150" as="geometry" />
        </mxCell>
        <mxCell id="Ume_qFMgXTS6-4JeX2_N-22" value="ujang" style="shape=umlActor;verticalLabelPosition=bottom;verticalAlign=top;html=1;outlineConnect=0;" vertex="1" parent="1">
          <mxGeometry x="60" y="530" width="98.31" height="130" as="geometry" />
        </mxCell>
        <mxCell id="Ume_qFMgXTS6-4JeX2_N-23" value="" style="endArrow=none;html=1;rounded=0;" edge="1" parent="1">
          <mxGeometry width="50" height="50" relative="1" as="geometry">
            <mxPoint x="160" y="560" as="sourcePoint" />
            <mxPoint x="330" y="470" as="targetPoint" />
          </mxGeometry>
        </mxCell>
      </root>
    </mxGraphModel>
  </diagram>
</mxfile>
